HIERARCHY
ROOT mixamorig:Hips
{
	OFFSET 0.00 0.00 0.00
	CHANNELS 6 Xposition Yposition Zposition Zrotation Yrotation Xrotation
	JOINT mixamorig:Spine
	{
		OFFSET	0.0000	9.9235	-1.2273
		CHANNELS 3 Zrotation Yrotation Xrotation
		JOINT mixamorig:Spine1
		{
			OFFSET	-0.0001	11.6455	-1.4224
			CHANNELS 3 Zrotation Yrotation Xrotation
			JOINT mixamorig:Spine2
			{
				OFFSET	0.0001	13.3602	-1.6265
				CHANNELS 3 Zrotation Yrotation Xrotation
				JOINT mixamorig:Neck
				{
					OFFSET	0.0000	15.0325	0.7929
					CHANNELS 3 Zrotation Yrotation Xrotation
					JOINT mixamorig:Head
					{
						OFFSET	-0.0000	10.3218	3.1424
						CHANNELS 3 Zrotation Yrotation Xrotation
						JOINT mixamorig:HeadTop_End
						{
							OFFSET	0.0002	18.4747	6.6364
							CHANNELS 3 Zrotation Yrotation Xrotation
							End Site
							{
								OFFSET 0.0000 0.0000 0.0000
							}
						}
						JOINT mixamorig:LeftEye
						{
							OFFSET	2.9479	7.6817	9.1207
							CHANNELS 3 Zrotation Yrotation Xrotation
							End Site
							{
								OFFSET 0.0000 0.0000 0.0000
							}
						}
						JOINT mixamorig:RightEye
						{
							OFFSET	-2.9445	7.6817	9.1205
							CHANNELS 3 Zrotation Yrotation Xrotation
							End Site
							{
								OFFSET 0.0000 0.0000 0.0000
							}
						}
					}
				}
				JOINT mixamorig:LeftShoulder
				{
					OFFSET	6.1059	9.1104	0.7056
					CHANNELS 3 Zrotation Yrotation Xrotation
					JOINT mixamorig:LeftArm
					{
						OFFSET	12.6532	-0.3431	-2.6009
						CHANNELS 3 Zrotation Yrotation Xrotation
						JOINT mixamorig:LeftForeArm
						{
							OFFSET	27.3517	-0.9645	-1.4034
							CHANNELS 3 Zrotation Yrotation Xrotation
							JOINT mixamorig:LeftHand
							{
								OFFSET	27.5619	-0.7072	1.5500
								CHANNELS 3 Zrotation Yrotation Xrotation
								JOINT mixamorig:LeftHandMiddle1
								{
									OFFSET	12.6630	-1.3962	0.9548
									CHANNELS 3 Zrotation Yrotation Xrotation
									JOINT mixamorig:LeftHandMiddle2
									{
										OFFSET	3.6093	-0.1669	0.0778
										CHANNELS 3 Zrotation Yrotation Xrotation
										JOINT mixamorig:LeftHandMiddle3
										{
											OFFSET	3.4004	-0.6274	0.1148
											CHANNELS 3 Zrotation Yrotation Xrotation
											End Site
											{
												OFFSET 3.6205 -0.6493 0.1199
											}
										}
									}
								}
								JOINT mixamorig:LeftHandThumb1
								{
									OFFSET	3.3268	-2.0474	3.5790
									CHANNELS 3 Zrotation Yrotation Xrotation
									JOINT mixamorig:LeftHandThumb2
									{
										OFFSET	3.4890	-1.4806	2.8548
										CHANNELS 3 Zrotation Yrotation Xrotation
										JOINT mixamorig:LeftHandThumb3
										{
											OFFSET	3.4086	-1.7658	2.1133
											CHANNELS 3 Zrotation Yrotation Xrotation
											End Site
											{
												OFFSET 2.7231 -1.1597 1.7903
											}
										}
									}
								}
								JOINT mixamorig:LeftHandIndex1
								{
									OFFSET	11.9722	-1.1061	3.7324
									CHANNELS 3 Zrotation Yrotation Xrotation
									JOINT mixamorig:LeftHandIndex2
									{
										OFFSET	3.8387	-0.6406	-0.0310
										CHANNELS 3 Zrotation Yrotation Xrotation
										JOINT mixamorig:LeftHandIndex3
										{
											OFFSET	3.3346	-0.7374	-0.0133
											CHANNELS 3 Zrotation Yrotation Xrotation
											End Site
											{
												OFFSET 2.9714 -0.8030 0.0009
											}
										}
									}
								}
								JOINT mixamorig:LeftHandRing1
								{
									OFFSET	12.1659	-1.6805	-1.2769
									CHANNELS 3 Zrotation Yrotation Xrotation
									JOINT mixamorig:LeftHandRing2
									{
										OFFSET	3.5925	-0.2366	-0.0771
										CHANNELS 3 Zrotation Yrotation Xrotation
										JOINT mixamorig:LeftHandRing3
										{
											OFFSET	3.2906	-0.3266	-0.0615
											CHANNELS 3 Zrotation Yrotation Xrotation
											End Site
											{
												OFFSET 3.5423 -0.9211 -0.0200
											}
										}
									}
								}
								JOINT mixamorig:LeftHandPinky1
								{
									OFFSET	11.0508	-2.1872	-3.8040
									CHANNELS 3 Zrotation Yrotation Xrotation
									JOINT mixamorig:LeftHandPinky2
									{
										OFFSET	4.1236	-0.3047	0.1212
										CHANNELS 3 Zrotation Yrotation Xrotation
										JOINT mixamorig:LeftHandPinky3
										{
											OFFSET	2.5805	-0.2597	0.0823
											CHANNELS 3 Zrotation Yrotation Xrotation
											End Site
											{
												OFFSET 2.9027 -0.3379 0.0963
											}
										}
									}
								}
							}
						}
					}
				}
				JOINT mixamorig:RightShoulder
				{
					OFFSET	-6.1057	9.1105	0.7056
					CHANNELS 3 Zrotation Yrotation Xrotation
					JOINT mixamorig:RightArm
					{
						OFFSET	-12.6532	-0.3429	-2.6009
						CHANNELS 3 Zrotation Yrotation Xrotation
						JOINT mixamorig:RightForeArm
						{
							OFFSET	-27.3518	-0.9642	-1.4034
							CHANNELS 3 Zrotation Yrotation Xrotation
							JOINT mixamorig:RightHand
							{
								OFFSET	-27.5619	-0.7068	1.5501
								CHANNELS 3 Zrotation Yrotation Xrotation
								JOINT mixamorig:RightHandMiddle1
								{
									OFFSET	-12.6630	-1.3960	0.9549
									CHANNELS 3 Zrotation Yrotation Xrotation
									JOINT mixamorig:RightHandMiddle2
									{
										OFFSET	-3.6093	-0.1669	0.0778
										CHANNELS 3 Zrotation Yrotation Xrotation
										JOINT mixamorig:RightHandMiddle3
										{
											OFFSET	-3.4004	-0.6273	0.1148
											CHANNELS 3 Zrotation Yrotation Xrotation
											End Site
											{
												OFFSET -3.6205 -0.6492 0.1199
											}
										}
									}
								}
								JOINT mixamorig:RightHandThumb1
								{
									OFFSET	-3.3269	-2.0474	3.5790
									CHANNELS 3 Zrotation Yrotation Xrotation
									JOINT mixamorig:RightHandThumb2
									{
										OFFSET	-3.4890	-1.4805	2.8548
										CHANNELS 3 Zrotation Yrotation Xrotation
										JOINT mixamorig:RightHandThumb3
										{
											OFFSET	-3.4086	-1.7658	2.1133
											CHANNELS 3 Zrotation Yrotation Xrotation
											End Site
											{
												OFFSET -2.7231 -1.1596 1.7903
											}
										}
									}
								}
								JOINT mixamorig:RightHandIndex1
								{
									OFFSET	-11.9722	-1.1059	3.7324
									CHANNELS 3 Zrotation Yrotation Xrotation
									JOINT mixamorig:RightHandIndex2
									{
										OFFSET	-3.8387	-0.6406	-0.0310
										CHANNELS 3 Zrotation Yrotation Xrotation
										JOINT mixamorig:RightHandIndex3
										{
											OFFSET	-3.3346	-0.7373	-0.0133
											CHANNELS 3 Zrotation Yrotation Xrotation
											End Site
											{
												OFFSET -2.9715 -0.8029 0.0009
											}
										}
									}
								}
								JOINT mixamorig:RightHandRing1
								{
									OFFSET	-12.1659	-1.6803	-1.2769
									CHANNELS 3 Zrotation Yrotation Xrotation
									JOINT mixamorig:RightHandRing2
									{
										OFFSET	-3.5925	-0.2366	-0.0771
										CHANNELS 3 Zrotation Yrotation Xrotation
										JOINT mixamorig:RightHandRing3
										{
											OFFSET	-3.2906	-0.3265	-0.0615
											CHANNELS 3 Zrotation Yrotation Xrotation
											End Site
											{
												OFFSET -3.5423 -0.9210 -0.0200
											}
										}
									}
								}
								JOINT mixamorig:RightHandPinky1
								{
									OFFSET	-11.0508	-2.1870	-3.8040
									CHANNELS 3 Zrotation Yrotation Xrotation
									JOINT mixamorig:RightHandPinky2
									{
										OFFSET	-4.1236	-0.3046	0.1212
										CHANNELS 3 Zrotation Yrotation Xrotation
										JOINT mixamorig:RightHandPinky3
										{
											OFFSET	-2.5805	-0.2597	0.0823
											CHANNELS 3 Zrotation Yrotation Xrotation
											End Site
											{
												OFFSET -2.9027 -0.3379 0.0963
											}
										}
									}
								}
							}
						}
					}
				}
			}
		}
	}
	JOINT mixamorig:RightUpLeg
	{
		OFFSET	-9.1245	-6.6564	-0.0554
		CHANNELS 3 Zrotation Yrotation Xrotation
		JOINT mixamorig:RightLeg
		{
			OFFSET	0.0000	-40.5610	-1.7662
			CHANNELS 3 Zrotation Yrotation Xrotation
			JOINT mixamorig:RightFoot
			{
				OFFSET	0.4978	-41.9625	-3.3512
				CHANNELS 3 Zrotation Yrotation Xrotation
				JOINT mixamorig:RightToeBase
				{
					OFFSET	-0.3734	-10.4922	12.6406
					CHANNELS 3 Zrotation Yrotation Xrotation
					End Site
					{
						OFFSET 0.0000 0.0000 9.9925
					}
				}
			}
		}
	}
	JOINT mixamorig:LeftUpLeg
	{
		OFFSET	9.1245	-6.6564	-0.0554
		CHANNELS 3 Zrotation Yrotation Xrotation
		JOINT mixamorig:LeftLeg
		{
			OFFSET	-0.0000	-40.5610	-1.7662
			CHANNELS 3 Zrotation Yrotation Xrotation
			JOINT mixamorig:LeftFoot
			{
				OFFSET	-0.4978	-41.9625	-3.3512
				CHANNELS 3 Zrotation Yrotation Xrotation
				JOINT mixamorig:LeftToeBase
				{
					OFFSET	0.3734	-10.4922	12.6406
					CHANNELS 3 Zrotation Yrotation Xrotation
					End Site
					{
						OFFSET -0.0000 0.0000 9.9925
					}
				}
			}
		}
	}
}
MOTION
Frames: 8
Frame Time: 0.0333333
0.4441 95.9228 -0.6169 1.8240 -39.8840 -14.2375 -0.1532 -0.0342 7.9917 -0.7511 0.0904 16.4137 -0.7462 0.0187 16.4146 0.8930 7.4746 0.4805 10.0102 22.4919 -2.7125 0.0000 -0.0000 0.0000 0.0000 -0.0000 0.0000 0.0000 -0.0000 0.0000 4.4464 -2.6614 -37.7542 -49.3915 -41.0415 -19.9973 0.8324 -58.8113 -2.4353 -26.5454 28.2839 -116.4298 -56.4331 -4.9784 2.7749 -57.3055 -2.1266 2.4889 -18.1751 -1.0173 0.5736 -3.8737 9.9023 10.3547 10.1445 -9.1883 13.1719 0.6108 -7.6517 -2.0410 -33.8206 -6.4671 0.6929 -57.2184 -2.8286 0.5578 -21.5748 -1.0504 -0.0940 -64.0616 -8.6750 2.8915 -70.2070 -3.8451 0.7270 -16.9117 -0.7411 -0.2249 -74.8319 -13.3525 3.2042 -62.6547 -2.1714 3.1026 -13.1906 -0.7145 0.4307 -2.2091 -13.2044 -40.1443 99.7975 40.3671 64.4513 -145.1556 87.2755 -147.1949 -7.6930 -37.0149 -35.5672 55.6537 1.5150 3.3950 102.7374 3.1547 6.5858 19.0792 1.4530 0.6051 17.0970 -4.9081 13.6430 -23.1255 -7.7074 20.7473 -35.0231 -48.1138 34.8965 8.7923 8.3556 -0.9495 29.9024 2.1934 -0.0233 27.1161 1.9607 -0.0565 59.7516 12.7210 2.9457 97.7587 5.9859 3.4127 41.4214 3.1932 0.0999 66.8322 10.7816 3.6334 81.0646 3.3562 5.1857 58.9000 3.2536 3.3787 -5.6363 5.5207 1.6291 0.7797 -0.6785 31.1844 10.3175 -14.9756 -20.7944 0.0000 0.0000 -0.0205 18.7773 47.3648 -2.5673 -0.3817 0.7002 22.0457 -2.7872 1.4302 4.2119 -0.0000 -0.0000 -0.0000 
0.4038 95.9269 -0.6010 1.8495 -39.8747 -14.2367 -0.1500 -0.0524 7.9766 -0.7468 0.0479 16.3922 -0.7420 -0.0237 16.3932 0.9156 7.5167 0.5060 9.9597 22.6121 -2.6659 0.0000 -0.0000 0.0000 0.0000 -0.0000 0.0000 0.0000 -0.0000 0.0000 5.8976 -2.1158 -37.7204 -50.1452 -41.5464 -18.1315 0.4577 -53.4166 -1.9852 -24.7223 22.6444 -117.0896 -54.2221 -4.9436 2.6369 -47.2537 -1.9136 1.9047 -18.2760 -1.0222 0.5777 -3.7913 11.5315 11.0586 10.1445 -9.1883 13.1719 0.6108 -7.6517 -2.0410 -29.4987 -6.7709 0.3851 -53.8754 -2.6863 0.4482 -17.8379 -0.8502 -0.1048 -64.2054 -8.6634 2.9014 -65.1102 -3.6215 0.5177 -17.1455 -0.7550 -0.2266 -76.6558 -12.9013 3.3515 -55.8989 -2.1133 2.6746 -8.6346 -0.4728 0.2637 -1.5793 -11.1929 -36.2194 99.2863 42.9097 63.9298 -52.6951 88.1910 -54.6918 -8.1044 -34.8392 -32.4167 53.6341 1.4092 3.2377 101.9364 3.1822 6.5264 18.0557 1.3815 0.5606 17.1035 -5.0785 13.6798 -22.9786 -7.6877 20.8609 -34.9274 -48.0767 34.8914 5.5697 7.7050 -0.9947 17.5413 1.2830 -0.1531 24.9813 1.8044 -0.0858 59.5368 12.5845 2.9372 97.3974 5.9801 3.3845 41.2857 3.1831 0.0958 66.4738 10.6563 3.6133 81.1349 3.3555 5.1915 58.5600 3.2465 3.3513 -5.6520 5.5146 1.6551 0.7779 -0.6906 31.1636 10.3065 -14.9625 -20.8077 -0.0000 -0.0000 0.0014 18.7705 47.3478 -2.5372 -0.3765 0.6999 22.0143 -2.8200 1.4383 4.2118 -0.0000 -0.0000 -0.0045 
0.3665 95.9309 -0.5800 1.9034 -39.8392 -14.2440 -0.1343 -0.0747 7.9619 -0.7182 -0.0039 16.3721 -0.7138 -0.0761 16.3733 0.8839 7.5877 0.4716 9.8538 22.7924 -2.7147 0.0000 -0.0000 0.0000 0.0000 -0.0000 0.0000 0.0000 -0.0000 0.0000 8.4814 -1.5831 -37.5771 -51.8720 -40.9109 -17.1153 0.2965 -50.4056 -1.7810 -23.0589 18.6735 -117.6911 -51.8602 -4.9177 2.4897 -36.0267 -1.5593 1.3075 -18.4069 -1.0287 0.5830 -3.6825 13.3643 11.8364 10.1445 -9.1883 13.1719 0.6108 -7.6517 -2.0410 -24.6904 -7.0683 0.0595 -50.1684 -2.5212 0.3366 -13.6767 -0.6269 -0.1014 -64.4362 -8.6575 2.9165 -59.4209 -3.3510 0.3086 -17.3984 -0.7701 -0.2283 -78.6887 -12.3874 3.5148 -48.3853 -1.9901 2.2103 -3.5369 -0.1875 0.1002 -1.1473 -9.2834 -32.3620 99.0967 45.4195 63.2449 -16.2077 85.2745 -18.1605 -8.4167 -32.5415 -29.5396 49.3455 1.2849 2.9042 99.4632 3.2620 6.3406 15.2131 1.1789 0.4438 17.1035 -5.0785 13.6798 -22.9786 -7.6877 20.8609 -34.9274 -48.0767 34.8914 4.1218 6.7911 -0.9029 16.7396 1.2232 -0.1547 18.3314 1.3119 -0.1392 59.0879 12.3911 2.9131 96.1295 5.9583 3.2856 41.0476 3.1655 0.0886 65.5792 10.5245 3.5491 81.0479 3.3564 5.1843 57.6403 3.2264 3.2775 -5.6918 5.5003 1.6661 0.7799 -0.6970 31.1543 10.3063 -14.9692 -20.8361 -0.0000 -0.0000 -0.0008 18.6858 47.2943 -2.5474 -0.3453 0.7106 21.9577 -2.8583 1.4542 4.2287 -0.0000 -0.0000 -0.0264 
0.3387 95.9331 -0.5455 2.0110 -39.7846 -14.2712 -0.1029 -0.0959 7.9516 -0.6674 -0.0527 16.3600 -0.6638 -0.1258 16.3613 0.7530 7.6777 0.3037 9.6525 22.9068 -2.8524 0.0000 -0.0000 0.0000 0.0000 -0.0000 0.0000 0.0000 -0.0000 0.0000 8.3881 -0.9390 -37.7931 -53.4352 -40.3044 -14.1752 0.3207 -50.8916 -1.8121 -21.2552 17.6467 -118.1827 -49.6237 -4.8896 2.3514 -25.3608 -1.1209 0.8141 -18.5499 -1.0357 0.5887 -3.5644 15.0869 12.5561 10.1445 -9.1883 13.1719 0.6108 -7.6517 -2.0410 -20.0766 -7.2886 -0.2301 -46.6527 -2.3583 0.2409 -9.7017 -0.4144 -0.0830 -64.6535 -8.6574 2.9304 -54.0468 -3.0776 0.1366 -17.6755 -0.7866 -0.2301 -80.5465 -11.8660 3.6663 -41.2904 -1.8190 1.7901 1.2182 0.0908 -0.0289 -0.8564 -7.4691 -28.7776 97.6724 47.0998 61.3011 -11.3109 83.5831 -13.2412 -8.6225 -30.0695 -26.9233 44.5730 1.0696 2.5470 96.4674 3.3479 6.1114 11.7861 0.9272 0.3165 17.1035 -5.0785 13.6798 -22.9786 -7.6877 20.8609 -34.9274 -48.0767 34.8914 1.9881 5.8566 -0.8357 7.8128 0.5593 -0.1160 9.9134 0.6851 -0.1245 58.6168 12.1858 2.8881 94.5115 5.9273 3.1601 40.8025 3.1473 0.0813 64.5569 10.3985 3.4738 80.8158 3.3589 5.1652 56.6811 3.2041 3.2009 -5.7888 5.4747 1.6539 0.7913 -0.6702 31.1727 10.3298 -14.9984 -20.8888 0.0000 -0.0000 -0.0194 18.4950 47.1848 -2.5998 -0.2874 0.7401 21.8961 -2.9040 1.5013 4.2350 -0.0000 0.0000 -0.0516 
0.3297 95.9348 -0.4998 2.1742 -39.6676 -14.3143 -0.0540 -0.1046 7.9435 -0.6053 -0.0798 16.3536 -0.6008 -0.1531 16.3554 0.5278 7.7215 -0.0521 9.2928 22.6702 -3.1188 0.0000 -0.0000 0.0000 0.0000 -0.0000 0.0000 0.0000 -0.0000 0.0000 7.0917 -0.2639 -38.2069 -55.5271 -38.6674 -9.9151 0.5814 -55.4094 -2.1370 -18.7197 19.5004 -118.1254 -47.7135 -4.8416 2.2354 -17.0168 -0.7185 0.4898 -18.6827 -1.0423 0.5941 -3.4656 16.3814 13.0897 10.1445 -9.1883 13.1719 0.6108 -7.6517 -2.0410 -16.2938 -7.3606 -0.4393 -43.8421 -2.2240 0.1716 -6.5036 -0.2447 -0.0575 -64.6856 -8.6651 2.9319 -49.9161 -2.8570 0.0223 -18.0004 -0.8059 -0.2321 -81.7930 -11.4081 3.7751 -35.7907 -1.6514 1.4808 4.7370 0.3031 -0.1093 -0.2368 -5.7497 -25.4014 93.2223 47.5239 57.1606 -14.6548 84.8475 -16.6019 -8.4567 -27.1951 -24.9099 42.3206 0.6902 2.3955 94.6975 3.3929 5.9738 9.6531 0.7668 0.2450 17.1035 -5.0785 13.6798 -22.9786 -7.6877 20.8609 -34.9274 -48.0767 34.8914 -0.5788 5.6922 -0.9126 -2.9945 -0.2241 0.0677 -7.2824 -0.5534 0.1876 58.4957 12.0570 2.8868 93.3343 5.9025 3.0694 40.7126 3.1406 0.0786 64.0708 10.3225 3.4393 80.3786 3.3632 5.1292 56.6003 3.2022 3.1945 -5.9526 5.4268 1.6186 0.8144 -0.6196 31.2149 10.3853 -15.0704 -20.9670 0.0000 0.0000 -0.0275 18.1868 47.0329 -2.7030 -0.2303 0.7931 21.8184 -2.9254 1.5334 4.2412 0.0000 0.0000 -0.0499 
0.3461 95.9322 -0.4649 2.3548 -39.3373 -14.3445 0.0140 -0.0843 7.9287 -0.5283 -0.0504 16.3337 -0.5272 -0.1117 16.3343 0.2342 7.6441 -0.5368 8.7148 21.7738 -3.6635 0.0000 -0.0000 0.0000 0.0000 -0.0000 0.0000 0.0000 -0.0000 0.0000 5.6399 0.2606 -38.7146 -57.6094 -37.0546 -5.1895 0.9389 -60.0486 -2.5588 -15.4784 21.9923 -116.7677 -46.9356 -4.6738 2.1954 -12.9603 -0.5068 0.3541 -18.9213 -1.0540 0.6039 -3.4221 16.9273 13.3119 10.1445 -9.1883 13.1719 0.6108 -7.6517 -2.0410 -14.5327 -7.2533 -0.5092 -42.6371 -2.1654 0.1440 -4.6041 -0.1447 -0.0379 -64.8660 -8.6210 2.9462 -48.2658 -2.7667 -0.0189 -18.7932 -0.8532 -0.2365 -82.9017 -11.0560 3.8670 -33.0986 -1.5586 1.3356 5.7422 0.3646 -0.1299 1.1728 -4.3129 -22.5455 87.2682 47.0917 52.1900 -27.9985 87.0475 -29.9759 -7.8111 -24.1100 -23.7744 44.6834 0.0454 2.6020 94.9098 3.3878 5.9904 9.4883 0.7543 0.2397 17.1035 -5.0785 13.6798 -22.9786 -7.6877 20.8609 -34.9274 -48.0767 34.8914 -3.3275 7.0228 -1.2471 -2.9945 -0.2241 0.0677 -9.6274 -0.7131 0.2585 58.8399 12.0357 2.9166 92.8026 5.8907 3.0286 40.5763 3.1305 0.0746 64.4331 10.3329 3.4686 79.7685 3.3690 5.0789 57.8855 3.2318 3.2972 -6.1535 5.3354 1.5782 0.8573 -0.5943 31.2776 10.4855 -15.2766 -21.0886 0.0000 -0.0000 -0.0213 17.7379 46.8621 -2.9312 -0.2054 0.8558 21.7356 -2.8673 1.4078 4.2742 0.0000 0.0000 -0.0244 
0.3862 95.9144 -0.4716 2.5027 -38.5892 -14.3370 0.1176 -0.0424 7.9045 -0.3926 0.0290 16.2894 -0.3690 -0.0485 16.2947 -0.1906 7.4660 -0.9892 8.0439 20.1472 -4.6574 0.0000 -0.0000 0.0000 0.0000 -0.0000 0.0000 0.0000 -0.0000 0.0000 4.1376 0.5327 -39.2621 -59.3441 -35.4292 -1.1544 1.2330 -62.9858 -2.8929 -10.4305 25.0317 -109.1614 -46.7104 -4.5735 2.1864 -13.3180 -0.5258 0.3655 -19.0783 -1.0616 0.6103 -3.4489 16.6162 13.1837 10.1445 -9.1883 13.1719 0.6108 -7.6517 -2.0410 -14.2977 -7.0471 -0.4855 -42.7521 -2.1710 0.1465 -4.3661 -0.1322 -0.0353 -64.6272 -8.6220 2.9310 -48.8390 -2.7982 -0.0049 -19.3915 -0.8889 -0.2395 -82.4563 -10.8376 3.8568 -33.5489 -1.5746 1.3595 4.5679 0.2928 -0.1057 3.2426 -3.0534 -19.9654 80.3917 46.0770 46.7452 -93.2488 88.5172 -95.2607 -7.0141 -21.1535 -23.2465 48.7737 -0.7142 2.9510 96.0955 3.3577 6.0826 10.4475 0.8269 0.2709 17.1035 -5.0785 13.6798 -22.9786 -7.6877 20.8609 -34.9274 -48.0767 34.8914 -5.8531 8.8822 -1.6638 -2.9945 -0.2241 0.0677 -14.0782 -1.0077 0.4106 59.5284 12.0869 2.9700 92.6703 5.8877 3.0184 40.7454 3.1431 0.0796 65.2426 10.3825 3.5321 78.8952 3.3762 5.0068 59.9203 3.2740 3.4610 -6.3360 5.1811 1.5614 0.9359 -0.6340 31.3865 10.6574 -15.7770 -21.3083 0.0000 -0.0000 -0.0289 17.0899 46.6518 -3.4107 -0.2016 0.9121 21.6925 -2.6952 0.9617 4.3558 -0.0000 0.0000 -0.0034 
0.4396 95.8766 -0.5234 2.6085 -37.3813 -14.3098 0.2889 -0.0208 7.8793 -0.1383 0.0639 16.2408 -0.1098 -0.0321 16.2509 -0.8687 7.3020 -1.3183 7.0104 18.2392 -5.7590 0.0000 -0.0000 0.0000 0.0000 -0.0000 0.0000 0.0000 -0.0000 0.0000 2.7053 0.6267 -39.7717 -60.5026 -32.7822 1.1295 1.5471 -65.5257 -3.2412 -0.8316 27.7485 -92.0195 -43.8933 -4.8782 1.9999 -14.2141 -0.5732 0.3945 -18.5701 -1.0368 0.5896 -3.5235 15.6665 12.7968 10.1445 -9.1883 13.1719 0.6107 -7.6517 -2.0410 -12.0445 -6.7371 -0.5418 -41.8500 -2.1268 0.1266 -5.1020 -0.1708 -0.0434 -62.1408 -8.9262 2.7527 -48.7841 -2.7952 -0.0063 -18.6780 -0.8463 -0.2359 -79.4366 -10.7609 3.6816 -34.9956 -1.6247 1.4374 3.1567 0.2071 -0.0748 5.3487 -1.8047 -17.3145 72.6715 44.4670 40.9034 -155.1355 86.1947 -157.1904 -6.5884 -18.2419 -23.2877 50.4998 -1.2742 3.1119 97.3163 3.3248 6.1768 11.9708 0.9409 0.3230 17.1035 -5.0785 13.6798 -22.9786 -7.6877 20.8609 -34.9274 -48.0767 34.8914 -7.5182 9.7839 -1.8802 -2.9945 -0.2241 0.0677 -14.7157 -1.0489 0.4343 60.5176 12.1913 3.0449 92.9338 5.8937 3.0386 42.0422 3.2390 0.1190 66.0744 10.4025 3.5997 77.5202 3.3853 4.8930 62.0171 3.3114 3.6313 -6.4693 4.9720 1.6046 1.0571 -0.7142 31.5492 10.9219 -16.6472 -21.6594 -0.0000 -0.0000 -0.0622 16.2298 46.3433 -4.1474 -0.1680 0.9788 21.7043 -2.4372 0.1723 4.4831 0.0000 -0.0000 -0.0001 
